# xmcd
#
# Track frame offsets:
# 150
# 10142
# 22107
# 34691
# 43753
# 52975
# 60350
# 70466
# 82513
# 92006
# 97000
# 109441
#
# Disc length: 1603 seconds
#
#
# Revision: 0
# Processed by: cddbd v1.5.2PL0 Copyright (c) Steve Scherf et al.
# Submitted via: FreeRIP 2.96 
#
DISCID=9306410c
DTITLE=Jim Reeves - Best of Jim Reeves
DYEAR=2007
DGENRE=Country
TTITLE0=He'll Have To Go (Live)
TTITLE1=Mexican Joe
TTITLE2=Bimbo
TTITLE3=Billy Bayou (Live)
TTITLE4=Home
TTITLE5=Blue Boy (Live)
TTITLE6=Anna Marie (Live)
TTITLE7=Am I Losing You (Live)
TTITLE8=I'm Gettin' Better (Live)
TTITLE9=According to My Heart (Live)
TTITLE10=Drinking Tequila
TTITLE11=I Love You More (Live)
EXTD=
EXTT0=
EXTT1=
EXTT2=
EXTT3=
EXTT4=
EXTT5=
EXTT6=
EXTT7=
EXTT8=
EXTT9=
EXTT10=
EXTT11=
PLAYORDER=
